  0
SECTION
  2
HEADER
  9
$ACADVER
  1
AC1014
  9
$HANDSEED
  5
FFFF
  9
$MEASUREMENT
 70
     1
  0
ENDSEC
  0
SECTION
  2
TABLES
  0
TABLE
  2
VPORT
  5
8
330
0
100
AcDbSymbolTable
 70
     4
  0
VPORT
  5
2E
330
8
100
AcDbSymbolTableRecord
100
AcDbViewportTableRecord
  2
*ACTIVE
 70
     0
 10
0.0
 20
0.0
 11
1.0
 21
1.0
 12
210.0
 22
148.5
 13
0.0
 23
0.0
 14
10.0
 24
10.0
 15
10.0
 25
10.0
 16
0.0
 26
0.0
 36
1.0
 17
0.0
 27
0.0
 37
0.0
 40
341.0
 41
1.24
 42
50.0
 43
0.0
 44
0.0
 50
0.0
 51
0.0
 71
     0
 72
   100
 73
     1
 74
     3
 75
     0
 76
     0
 77
     0
 78
     0
  0
ENDTAB
  0
TABLE
  2
LTYPE
  5
5
330
0
100
AcDbSymbolTable
 70
     1
  0
LTYPE
  5
14
330
5
100
AcDbSymbolTableRecord
100
AcDbLinetypeTableRecord
  2
BYBLOCK
 70
     0
  3

 72
    65
 73
     0
 40
0.0
  0
LTYPE
  5
15
330
5
100
AcDbSymbolTableRecord
100
AcDbLinetypeTableRecord
  2
BYLAYER
 70
     0
  3

 72
    65
 73
     0
 40
0.0
  0
LTYPE
  5
16
330
5
100
AcDbSymbolTableRecord
100
AcDbLinetypeTableRecord
  2
CONTINUOUS
 70
     0
  3
Solid line
 72
    65
 73
     0
 40
0.0
  0
ENDTAB
  0
TABLE
  2
LAYER
  5
2
100
AcDbSymbolTable
 70
2
  0
LAYER
  5
50
100
AcDbSymbolTableRecord
100
AcDbLayerTableRecord
  2
0
 70
0
  6
CONTINUOUS
  0
LAYER
  5
51
100
AcDbSymbolTableRecord
100
AcDbLayerTableRecord
  2
Layer_1
 70
0
  6
CONTINUOUS
  0
ENDTAB
  0
TABLE
  2
STYLE
  5
3
330
0
100
AcDbSymbolTable
 70
     1
  0
STYLE
  5
11
330
3
100
AcDbSymbolTableRecord
100
AcDbTextStyleTableRecord
  2
STANDARD
 70
     0
 40
0.0
 41
1.0
 50
0.0
 71
     0
 42
2.5
  3
txt
  4

  0
ENDTAB
  0
TABLE
  2
VIEW
  5
6
330
0
100
AcDbSymbolTable
 70
     0
  0
ENDTAB
  0
TABLE
  2
UCS
  5
7
330
0
100
AcDbSymbolTable
 70
     0
  0
ENDTAB
  0
TABLE
  2
APPID
  5
9
330
0
100
AcDbSymbolTable
 70
     2
  0
APPID
  5
12
330
9
100
AcDbSymbolTableRecord
100
AcDbRegAppTableRecord
  2
ACAD
 70
     0
  0
ENDTAB
  0
TABLE
  2
DIMSTYLE
  5
A
330
0
100
AcDbSymbolTable
 70
     1
  0
DIMSTYLE
105
27
330
A
100
AcDbSymbolTableRecord
100
AcDbDimStyleTableRecord
  2
ISO-25
 70
     0
  3

  4

  5

  6

  7

 40
1.0
 41
2.5
 42
0.625
 43
3.75
 44
1.25
 45
0.0
 46
0.0
 47
0.0
 48
0.0
140
2.5
141
2.5
142
0.0
143
0.03937007874016
144
1.0
145
0.0
146
1.0
147
0.625
 71
     0
 72
     0
 73
     0
 74
     0
 75
     0
 76
     0
 77
     1
 78
     8
170
     0
171
     3
172
     1
173
     0
174
     0
175
     0
176
     0
177
     0
178
     0
270
     2
271
     2
272
     2
273
     2
274
     3
340
11
275
     0
280
     0
281
     0
282
     0
283
     0
284
     8
285
     0
286
     0
287
     3
288
     0
  0
ENDTAB
  0
TABLE
  2
BLOCK_RECORD
  5
1
330
0
100
AcDbSymbolTable
 70
     1
  0
BLOCK_RECORD
  5
1F
330
1
100
AcDbSymbolTableRecord
100
AcDbBlockTableRecord
  2
*MODEL_SPACE
  0
BLOCK_RECORD
  5
1B
330
1
100
AcDbSymbolTableRecord
100
AcDbBlockTableRecord
  2
*PAPER_SPACE
  0
ENDTAB
  0
ENDSEC
  0
SECTION
  2
BLOCKS
  0
BLOCK
  5
20
330
1F
100
AcDbEntity
  8
0
100
AcDbBlockBegin
  2
*MODEL_SPACE
 70
     0
 10
0.0
 20
0.0
 30
0.0
  3
*MODEL_SPACE
  1

  0
ENDBLK
  5
21
330
1F
100
AcDbEntity
  8
0
100
AcDbBlockEnd
  0
BLOCK
  5
1C
330
1B
100
AcDbEntity
 67
     1
  8
0
100
AcDbBlockBegin
  2
*PAPER_SPACE
  1

  0
ENDBLK
  5
1D
330
1B
100
AcDbEntity
 67
     1
  8
0
100
AcDbBlockEnd
  0
ENDSEC
  0
SECTION
  2
ENTITIES
  0
LINE
  5
100
100
AcDbEntity
  8
Layer_1
 62
7
100
AcDbLine
 10
16.439227
 20
312.938856
 30
0.0
 11
26.098486
 21
310.350666
 31
0.0
  0
SPLINE
  5
101
100
AcDbEntity
  8
Layer_1
 62
7
100
AcDbSpline
 70
8
 71
3
 72
8
 73
4
 74
0
 40
0
 40
0
 40
0
 40
0
 40
1
 40
1
 40
1
 40
1
 10
26.098486
 20
310.350666
 30
0.0
 10
47.840001
 20
327.312223
 30
0.0
 10
190.408852
 20
338.466385
 30
0.0
 10
190.306250
 20
266.351327
 30
0.0
  0
LINE
  5
102
100
AcDbEntity
  8
Layer_1
 62
7
100
AcDbLine
 10
190.306250
 20
266.351327
 30
0.0
 11
209.624771
 21
261.174945
 31
0.0
  0
SPLINE
  5
103
100
AcDbEntity
  8
Layer_1
 62
7
100
AcDbSpline
 70
8
 71
3
 72
8
 73
4
 74
0
 40
0
 40
0
 40
0
 40
0
 40
1
 40
1
 40
1
 40
1
 10
209.624771
 20
261.174945
 30
0.0
 10
208.182169
 20
337.740527
 30
0.0
 10
259.406883
 20
341.550061
 30
0.0
 10
259.406883
 20
341.550061
 30
0.0
  0
LINE
  5
104
100
AcDbEntity
  8
Layer_1
 62
7
100
AcDbLine
 10
259.406883
 20
341.550061
 30
0.0
 11
259.412894
 21
351.482974
 31
0.0
  0
LINE
  5
105
100
AcDbEntity
  8
Layer_1
 62
7
100
AcDbLine
 10
259.412894
 20
351.482974
 30
0.0
 11
9.412809
 21
351.482974
 31
0.0
  0
LINE
  5
106
100
AcDbEntity
  8
Layer_1
 62
7
100
AcDbLine
 10
9.412809
 20
351.482974
 30
0.0
 11
9.412811
 21
361.482974
 31
0.0
  0
SPLINE
  5
107
100
AcDbEntity
  8
Layer_1
 62
7
100
AcDbSpline
 70
8
 71
3
 72
8
 73
4
 74
0
 40
0
 40
0
 40
0
 40
0
 40
1
 40
1
 40
1
 40
1
 10
9.412811
 20
361.482974
 30
0.0
 10
6.131890
 20
360.294691
 30
0.0
 10
1.255945
 20
353.690652
 30
0.0
 10
2.540527
 20
343.402125
 30
0.0
  0
SPLINE
  5
108
100
AcDbEntity
  8
Layer_1
 62
7
100
AcDbSpline
 70
8
 71
3
 72
8
 73
4
 74
0
 40
0
 40
0
 40
0
 40
0
 40
1
 40
1
 40
1
 40
1
 10
2.540527
 20
343.402125
 30
0.0
 10
31.561658
 20
331.292288
 30
0.0
 10
16.439233
 20
312.938856
 30
0.0
 10
16.439233
 20
312.938856
 30
0.0
  0
LINE
  5
109
100
AcDbEntity
  8
Layer_1
 62
7
100
AcDbLine
 10
16.439233
 20
312.938856
 30
0.0
 11
16.439227
 21
312.938856
 31
0.0
  0
SPLINE
  5
10a
100
AcDbEntity
  8
Layer_1
 62
7
100
AcDbSpline
 70
8
 71
3
 72
8
 73
4
 74
0
 40
0
 40
0
 40
0
 40
0
 40
1
 40
1
 40
1
 40
1
 10
170.576631
 20
339.283148
 30
0.0
 10
169.445202
 20
339.283148
 30
0.0
 10
168.527989
 20
340.200359
 30
0.0
 10
168.527989
 20
341.331794
 30
0.0
  0
SPLINE
  5
10b
100
AcDbEntity
  8
Layer_1
 62
7
100
AcDbSpline
 70
8
 71
3
 72
8
 73
4
 74
0
 40
0
 40
0
 40
0
 40
0
 40
1
 40
1
 40
1
 40
1
 10
168.527989
 20
341.331794
 30
0.0
 10
168.527989
 20
342.463230
 30
0.0
 10
169.445202
 20
343.380441
 30
0.0
 10
170.576631
 20
343.380441
 30
0.0
  0
SPLINE
  5
10c
100
AcDbEntity
  8
Layer_1
 62
7
100
AcDbSpline
 70
8
 71
3
 72
8
 73
4
 74
0
 40
0
 40
0
 40
0
 40
0
 40
1
 40
1
 40
1
 40
1
 10
170.576631
 20
343.380441
 30
0.0
 10
171.708070
 20
343.380441
 30
0.0
 10
172.625282
 20
342.463230
 30
0.0
 10
172.625282
 20
341.331794
 30
0.0
  0
SPLINE
  5
10d
100
AcDbEntity
  8
Layer_1
 62
7
100
AcDbSpline
 70
8
 71
3
 72
8
 73
4
 74
0
 40
0
 40
0
 40
0
 40
0
 40
1
 40
1
 40
1
 40
1
 10
172.625282
 20
341.331794
 30
0.0
 10
172.625282
 20
340.200359
 30
0.0
 10
171.708070
 20
339.283148
 30
0.0
 10
170.576631
 20
339.283148
 30
0.0
  0
LINE
  5
10e
100
AcDbEntity
  8
Layer_1
 62
7
100
AcDbLine
 10
170.576631
 20
339.283148
 30
0.0
 11
170.576631
 21
339.283148
 31
0.0
  0
LINE
  5
10f
100
AcDbEntity
  8
Layer_1
 62
7
100
AcDbLine
 10
186.624298
 20
342.877833
 30
0.0
 11
186.624298
 21
339.785749
 31
0.0
  0
LINE
  5
110
100
AcDbEntity
  8
Layer_1
 62
7
100
AcDbLine
 10
186.624298
 20
339.785749
 30
0.0
 11
178.532214
 21
339.785749
 31
0.0
  0
LINE
  5
111
100
AcDbEntity
  8
Layer_1
 62
7
100
AcDbLine
 10
178.532214
 20
339.785749
 30
0.0
 11
178.532214
 21
342.877833
 31
0.0
  0
LINE
  5
112
100
AcDbEntity
  8
Layer_1
 62
7
100
AcDbLine
 10
178.532214
 20
342.877833
 30
0.0
 11
186.624298
 21
342.877833
 31
0.0
  0
LINE
  5
113
100
AcDbEntity
  8
Layer_1
 62
7
100
AcDbLine
 10
162.627555
 20
342.881095
 30
0.0
 11
162.627555
 21
339.782493
 31
0.0
  0
LINE
  5
114
100
AcDbEntity
  8
Layer_1
 62
7
100
AcDbLine
 10
162.627555
 20
339.782493
 30
0.0
 11
154.528952
 21
339.782493
 31
0.0
  0
LINE
  5
115
100
AcDbEntity
  8
Layer_1
 62
7
100
AcDbLine
 10
154.528952
 20
339.782493
 30
0.0
 11
154.528952
 21
342.881095
 31
0.0
  0
LINE
  5
116
100
AcDbEntity
  8
Layer_1
 62
7
100
AcDbLine
 10
154.528952
 20
342.881095
 30
0.0
 11
162.627555
 21
342.881095
 31
0.0
  0
SPLINE
  5
117
100
AcDbEntity
  8
Layer_1
 62
7
100
AcDbSpline
 70
8
 71
3
 72
8
 73
4
 74
0
 40
0
 40
0
 40
0
 40
0
 40
1
 40
1
 40
1
 40
1
 10
194.629314
 20
317.334115
 30
0.0
 10
194.629314
 20
318.465545
 30
0.0
 10
195.546525
 20
319.382758
 30
0.0
 10
196.677960
 20
319.382758
 30
0.0
  0
SPLINE
  5
118
100
AcDbEntity
  8
Layer_1
 62
7
100
AcDbSpline
 70
8
 71
3
 72
8
 73
4
 74
0
 40
0
 40
0
 40
0
 40
0
 40
1
 40
1
 40
1
 40
1
 10
196.677960
 20
319.382758
 30
0.0
 10
197.809395
 20
319.382758
 30
0.0
 10
198.726607
 20
318.465545
 30
0.0
 10
198.726607
 20
317.334115
 30
0.0
  0
SPLINE
  5
119
100
AcDbEntity
  8
Layer_1
 62
7
100
AcDbSpline
 70
8
 71
3
 72
8
 73
4
 74
0
 40
0
 40
0
 40
0
 40
0
 40
1
 40
1
 40
1
 40
1
 10
198.726607
 20
317.334115
 30
0.0
 10
198.726607
 20
316.202677
 30
0.0
 10
197.809395
 20
315.285464
 30
0.0
 10
196.677960
 20
315.285464
 30
0.0
  0
SPLINE
  5
11a
100
AcDbEntity
  8
Layer_1
 62
7
100
AcDbSpline
 70
8
 71
3
 72
8
 73
4
 74
0
 40
0
 40
0
 40
0
 40
0
 40
1
 40
1
 40
1
 40
1
 10
196.677960
 20
315.285464
 30
0.0
 10
195.546525
 20
315.285464
 30
0.0
 10
194.629314
 20
316.202677
 30
0.0
 10
194.629314
 20
317.334115
 30
0.0
  0
LINE
  5
11b
100
AcDbEntity
  8
Layer_1
 62
7
100
AcDbLine
 10
194.629314
 20
317.334115
 30
0.0
 11
194.629314
 21
317.334115
 31
0.0
  0
LINE
  5
11c
100
AcDbEntity
  8
Layer_1
 62
7
100
AcDbLine
 10
198.223998
 20
301.286449
 30
0.0
 11
195.131914
 21
301.286449
 31
0.0
  0
LINE
  5
11d
100
AcDbEntity
  8
Layer_1
 62
7
100
AcDbLine
 10
195.131914
 20
301.286449
 30
0.0
 11
195.131914
 21
309.378532
 31
0.0
  0
LINE
  5
11e
100
AcDbEntity
  8
Layer_1
 62
7
100
AcDbLine
 10
195.131914
 20
309.378532
 30
0.0
 11
198.223998
 21
309.378532
 31
0.0
  0
LINE
  5
11f
100
AcDbEntity
  8
Layer_1
 62
7
100
AcDbLine
 10
198.223998
 20
309.378532
 30
0.0
 11
198.223998
 21
301.286449
 31
0.0
  0
LINE
  5
120
100
AcDbEntity
  8
Layer_1
 62
7
100
AcDbLine
 10
198.227261
 20
325.283192
 30
0.0
 11
195.128658
 21
325.283192
 31
0.0
  0
LINE
  5
121
100
AcDbEntity
  8
Layer_1
 62
7
100
AcDbLine
 10
195.128658
 20
325.283192
 30
0.0
 11
195.128658
 21
333.381795
 31
0.0
  0
LINE
  5
122
100
AcDbEntity
  8
Layer_1
 62
7
100
AcDbLine
 10
195.128658
 20
333.381795
 30
0.0
 11
198.227261
 21
333.381795
 31
0.0
  0
LINE
  5
123
100
AcDbEntity
  8
Layer_1
 62
7
100
AcDbLine
 10
198.227261
 20
333.381795
 30
0.0
 11
198.227261
 21
325.283192
 31
0.0
  0
SPLINE
  5
124
100
AcDbEntity
  8
Layer_1
 62
7
100
AcDbSpline
 70
8
 71
3
 72
8
 73
4
 74
0
 40
0
 40
0
 40
0
 40
0
 40
1
 40
1
 40
1
 40
1
 10
130.871375
 20
479.618762
 30
0.0
 10
129.739945
 20
479.618762
 30
0.0
 10
128.822732
 20
480.535974
 30
0.0
 10
128.822732
 20
481.667409
 30
0.0
  0
SPLINE
  5
125
100
AcDbEntity
  8
Layer_1
 62
7
100
AcDbSpline
 70
8
 71
3
 72
8
 73
4
 74
0
 40
0
 40
0
 40
0
 40
0
 40
1
 40
1
 40
1
 40
1
 10
128.822732
 20
481.667409
 30
0.0
 10
128.822732
 20
482.798844
 30
0.0
 10
129.739945
 20
483.716056
 30
0.0
 10
130.871375
 20
483.716056
 30
0.0
  0
SPLINE
  5
126
100
AcDbEntity
  8
Layer_1
 62
7
100
AcDbSpline
 70
8
 71
3
 72
8
 73
4
 74
0
 40
0
 40
0
 40
0
 40
0
 40
1
 40
1
 40
1
 40
1
 10
130.871375
 20
483.716056
 30
0.0
 10
132.002813
 20
483.716056
 30
0.0
 10
132.920026
 20
482.798844
 30
0.0
 10
132.920026
 20
481.667409
 30
0.0
  0
SPLINE
  5
127
100
AcDbEntity
  8
Layer_1
 62
7
100
AcDbSpline
 70
8
 71
3
 72
8
 73
4
 74
0
 40
0
 40
0
 40
0
 40
0
 40
1
 40
1
 40
1
 40
1
 10
132.920026
 20
481.667409
 30
0.0
 10
132.920026
 20
480.535974
 30
0.0
 10
132.002813
 20
479.618762
 30
0.0
 10
130.871375
 20
479.618762
 30
0.0
  0
LINE
  5
128
100
AcDbEntity
  8
Layer_1
 62
7
100
AcDbLine
 10
130.871375
 20
479.618762
 30
0.0
 11
130.871375
 21
479.618762
 31
0.0
  0
LINE
  5
129
100
AcDbEntity
  8
Layer_1
 62
7
100
AcDbLine
 10
146.919041
 20
483.213447
 30
0.0
 11
146.919041
 21
480.121363
 31
0.0
  0
LINE
  5
12a
100
AcDbEntity
  8
Layer_1
 62
7
100
AcDbLine
 10
146.919041
 20
480.121363
 30
0.0
 11
138.826958
 21
480.121363
 31
0.0
  0
LINE
  5
12b
100
AcDbEntity
  8
Layer_1
 62
7
100
AcDbLine
 10
138.826958
 20
480.121363
 30
0.0
 11
138.826958
 21
483.213447
 31
0.0
  0
LINE
  5
12c
100
AcDbEntity
  8
Layer_1
 62
7
100
AcDbLine
 10
138.826958
 20
483.213447
 30
0.0
 11
146.919041
 21
483.213447
 31
0.0
  0
LINE
  5
12d
100
AcDbEntity
  8
Layer_1
 62
7
100
AcDbLine
 10
122.922298
 20
483.216709
 30
0.0
 11
122.922298
 21
480.118107
 31
0.0
  0
LINE
  5
12e
100
AcDbEntity
  8
Layer_1
 62
7
100
AcDbLine
 10
122.922298
 20
480.118107
 30
0.0
 11
114.823695
 21
480.118107
 31
0.0
  0
LINE
  5
12f
100
AcDbEntity
  8
Layer_1
 62
7
100
AcDbLine
 10
114.823695
 20
480.118107
 30
0.0
 11
114.823695
 21
483.216709
 31
0.0
  0
LINE
  5
130
100
AcDbEntity
  8
Layer_1
 62
7
100
AcDbLine
 10
114.823695
 20
483.216709
 30
0.0
 11
122.922298
 21
483.216709
 31
0.0
  0
LINE
  5
131
100
AcDbEntity
  8
Layer_1
 62
7
100
AcDbLine
 10
30.867206
 20
438.667409
 30
0.0
 11
27.867212
 21
438.667409
 31
0.0
  0
LINE
  5
132
100
AcDbEntity
  8
Layer_1
 62
7
100
AcDbLine
 10
27.867212
 20
438.667409
 30
0.0
 11
27.867212
 21
446.667410
 31
0.0
  0
LINE
  5
133
100
AcDbEntity
  8
Layer_1
 62
7
100
AcDbLine
 10
27.867212
 20
446.667410
 30
0.0
 11
30.867206
 21
446.667410
 31
0.0
  0
LINE
  5
134
100
AcDbEntity
  8
Layer_1
 62
7
100
AcDbLine
 10
30.867206
 20
446.667410
 30
0.0
 11
30.867206
 21
452.467410
 31
0.0
  0
LINE
  5
135
100
AcDbEntity
  8
Layer_1
 62
7
100
AcDbLine
 10
30.867206
 20
452.467410
 30
0.0
 11
35.867196
 21
452.467410
 31
0.0
  0
LINE
  5
136
100
AcDbEntity
  8
Layer_1
 62
7
100
AcDbLine
 10
35.867196
 20
452.467410
 30
0.0
 11
35.867196
 21
450.367411
 31
0.0
  0
LINE
  5
137
100
AcDbEntity
  8
Layer_1
 62
7
100
AcDbLine
 10
35.867196
 20
450.367411
 30
0.0
 11
40.867186
 21
450.367411
 31
0.0
  0
LINE
  5
138
100
AcDbEntity
  8
Layer_1
 62
7
100
AcDbLine
 10
40.867186
 20
450.367411
 30
0.0
 11
40.867186
 21
458.967411
 31
0.0
  0
LINE
  5
139
100
AcDbEntity
  8
Layer_1
 62
7
100
AcDbLine
 10
40.867186
 20
458.967411
 30
0.0
 11
35.867196
 21
458.967411
 31
0.0
  0
LINE
  5
13a
100
AcDbEntity
  8
Layer_1
 62
7
100
AcDbLine
 10
35.867196
 20
458.967411
 30
0.0
 11
35.867196
 21
456.867410
 31
0.0
  0
LINE
  5
13b
100
AcDbEntity
  8
Layer_1
 62
7
100
AcDbLine
 10
35.867196
 20
456.867410
 30
0.0
 11
30.867206
 21
456.867410
 31
0.0
  0
LINE
  5
13c
100
AcDbEntity
  8
Layer_1
 62
7
100
AcDbLine
 10
30.867206
 20
456.867410
 30
0.0
 11
30.867206
 21
462.667409
 31
0.0
  0
LINE
  5
13d
100
AcDbEntity
  8
Layer_1
 62
7
100
AcDbLine
 10
30.867206
 20
462.667409
 30
0.0
 11
27.867212
 21
462.667409
 31
0.0
  0
LINE
  5
13e
100
AcDbEntity
  8
Layer_1
 62
7
100
AcDbLine
 10
27.867212
 20
462.667409
 30
0.0
 11
27.867212
 21
470.667410
 31
0.0
  0
LINE
  5
13f
100
AcDbEntity
  8
Layer_1
 62
7
100
AcDbLine
 10
27.867212
 20
470.667410
 30
0.0
 11
30.866049
 21
470.667410
 31
0.0
  0
LINE
  5
140
100
AcDbEntity
  8
Layer_1
 62
7
100
AcDbLine
 10
30.866049
 20
470.667410
 30
0.0
 11
30.864920
 21
504.667408
 31
0.0
  0
SPLINE
  5
141
100
AcDbEntity
  8
Layer_1
 62
7
100
AcDbSpline
 70
8
 71
3
 72
8
 73
4
 74
0
 40
0
 40
0
 40
0
 40
0
 40
1
 40
1
 40
1
 40
1
 10
30.864920
 20
504.667408
 30
0.0
 10
30.864920
 20
504.667408
 30
0.0
 10
64.840304
 20
490.364972
 30
0.0
 10
130.864920
 20
490.364972
 30
0.0
  0
SPLINE
  5
142
100
AcDbEntity
  8
Layer_1
 62
7
100
AcDbSpline
 70
8
 71
3
 72
8
 73
4
 74
0
 40
0
 40
0
 40
0
 40
0
 40
1
 40
1
 40
1
 40
1
 10
130.864920
 20
490.364972
 30
0.0
 10
196.889537
 20
490.364972
 30
0.0
 10
230.864921
 20
504.667408
 30
0.0
 10
230.864921
 20
504.667408
 30
0.0
  0
LINE
  5
143
100
AcDbEntity
  8
Layer_1
 62
7
100
AcDbLine
 10
230.864921
 20
504.667408
 30
0.0
 11
230.870283
 21
470.667410
 31
0.0
  0
LINE
  5
144
100
AcDbEntity
  8
Layer_1
 62
7
100
AcDbLine
 10
230.870283
 20
470.667410
 30
0.0
 11
233.875526
 21
470.667410
 31
0.0
  0
LINE
  5
145
100
AcDbEntity
  8
Layer_1
 62
7
100
AcDbLine
 10
233.875526
 20
470.667410
 30
0.0
 11
233.875526
 21
462.667409
 31
0.0
  0
LINE
  5
146
100
AcDbEntity
  8
Layer_1
 62
7
100
AcDbLine
 10
233.875526
 20
462.667409
 30
0.0
 11
230.875532
 21
462.667409
 31
0.0
  0
LINE
  5
147
100
AcDbEntity
  8
Layer_1
 62
7
100
AcDbLine
 10
230.875532
 20
462.667409
 30
0.0
 11
230.875532
 21
456.867410
 31
0.0
  0
LINE
  5
148
100
AcDbEntity
  8
Layer_1
 62
7
100
AcDbLine
 10
230.875532
 20
456.867410
 30
0.0
 11
225.875542
 21
456.867410
 31
0.0
  0
LINE
  5
149
100
AcDbEntity
  8
Layer_1
 62
7
100
AcDbLine
 10
225.875542
 20
456.867410
 30
0.0
 11
225.875542
 21
458.967411
 31
0.0
  0
LINE
  5
14a
100
AcDbEntity
  8
Layer_1
 62
7
100
AcDbLine
 10
225.875542
 20
458.967411
 30
0.0
 11
220.875552
 21
458.967411
 31
0.0
  0
LINE
  5
14b
100
AcDbEntity
  8
Layer_1
 62
7
100
AcDbLine
 10
220.875552
 20
458.967411
 30
0.0
 11
220.875552
 21
450.367411
 31
0.0
  0
LINE
  5
14c
100
AcDbEntity
  8
Layer_1
 62
7
100
AcDbLine
 10
220.875552
 20
450.367411
 30
0.0
 11
225.875542
 21
450.367411
 31
0.0
  0
LINE
  5
14d
100
AcDbEntity
  8
Layer_1
 62
7
100
AcDbLine
 10
225.875542
 20
450.367411
 30
0.0
 11
225.875542
 21
452.467410
 31
0.0
  0
LINE
  5
14e
100
AcDbEntity
  8
Layer_1
 62
7
100
AcDbLine
 10
225.875542
 20
452.467410
 30
0.0
 11
230.875532
 21
452.467410
 31
0.0
  0
LINE
  5
14f
100
AcDbEntity
  8
Layer_1
 62
7
100
AcDbLine
 10
230.875532
 20
452.467410
 30
0.0
 11
230.875532
 21
446.667410
 31
0.0
  0
LINE
  5
150
100
AcDbEntity
  8
Layer_1
 62
7
100
AcDbLine
 10
230.875532
 20
446.667410
 30
0.0
 11
233.875526
 21
446.667410
 31
0.0
  0
LINE
  5
151
100
AcDbEntity
  8
Layer_1
 62
7
100
AcDbLine
 10
233.875526
 20
446.667410
 30
0.0
 11
233.875526
 21
438.667409
 31
0.0
  0
LINE
  5
152
100
AcDbEntity
  8
Layer_1
 62
7
100
AcDbLine
 10
233.875526
 20
438.667409
 30
0.0
 11
230.865005
 21
438.667409
 31
0.0
  0
LINE
  5
153
100
AcDbEntity
  8
Layer_1
 62
7
100
AcDbLine
 10
230.865005
 20
438.667409
 30
0.0
 11
230.865034
 21
404.667410
 31
0.0
  0
SPLINE
  5
154
100
AcDbEntity
  8
Layer_1
 62
7
100
AcDbSpline
 70
8
 71
3
 72
8
 73
4
 74
0
 40
0
 40
0
 40
0
 40
0
 40
1
 40
1
 40
1
 40
1
 10
230.865034
 20
404.667410
 30
0.0
 10
230.865034
 20
404.667410
 30
0.0
 10
199.298614
 20
441.189703
 30
0.0
 10
130.865033
 20
441.189703
 30
0.0
  0
SPLINE
  5
155
100
AcDbEntity
  8
Layer_1
 62
7
100
AcDbSpline
 70
8
 71
3
 72
8
 73
4
 74
0
 40
0
 40
0
 40
0
 40
0
 40
1
 40
1
 40
1
 40
1
 10
130.865033
 20
441.189703
 30
0.0
 10
62.431453
 20
441.189703
 30
0.0
 10
30.865033
 20
404.667410
 30
0.0
 10
30.865033
 20
404.667410
 30
0.0
  0
LINE
  5
156
100
AcDbEntity
  8
Layer_1
 62
7
100
AcDbLine
 10
30.865033
 20
404.667410
 30
0.0
 11
30.865005
 21
438.667409
 31
0.0
  0
SPLINE
  5
157
100
AcDbEntity
  8
Layer_1
 62
7
100
AcDbSpline
 70
8
 71
3
 72
8
 73
4
 74
0
 40
0
 40
0
 40
0
 40
0
 40
1
 40
1
 40
1
 40
1
 10
30.867000
 20
354.709668
 30
0.0
 10
30.867000
 20
354.709668
 30
0.0
 10
49.436596
 20
376.929523
 30
0.0
 10
130.576605
 20
376.929523
 30
0.0
  0
SPLINE
  5
158
100
AcDbEntity
  8
Layer_1
 62
7
100
AcDbSpline
 70
8
 71
3
 72
8
 73
4
 74
0
 40
0
 40
0
 40
0
 40
0
 40
1
 40
1
 40
1
 40
1
 10
130.576605
 20
376.929523
 30
0.0
 10
211.716626
 20
376.929523
 30
0.0
 10
230.865008
 20
354.709668
 30
0.0
 10
230.865008
 20
354.709668
 30
0.0
  0
LINE
  5
159
100
AcDbEntity
  8
Layer_1
 62
7
100
AcDbLine
 10
230.865008
 20
354.709668
 30
0.0
 11
230.865008
 21
362.610857
 31
0.0
  0
LINE
  5
15a
100
AcDbEntity
  8
Layer_1
 62
7
100
AcDbLine
 10
230.865008
 20
362.610857
 30
0.0
 11
233.875529
 21
362.610857
 31
0.0
  0
LINE
  5
15b
100
AcDbEntity
  8
Layer_1
 62
7
100
AcDbLine
 10
233.875529
 20
362.610857
 30
0.0
 11
233.875529
 21
370.610858
 31
0.0
  0
LINE
  5
15c
100
AcDbEntity
  8
Layer_1
 62
7
100
AcDbLine
 10
233.875529
 20
370.610858
 30
0.0
 11
230.875535
 21
370.610858
 31
0.0
  0
LINE
  5
15d
100
AcDbEntity
  8
Layer_1
 62
7
100
AcDbLine
 10
230.875535
 20
370.610858
 30
0.0
 11
230.875535
 21
376.410858
 31
0.0
  0
LINE
  5
15e
100
AcDbEntity
  8
Layer_1
 62
7
100
AcDbLine
 10
230.875535
 20
376.410858
 30
0.0
 11
225.875545
 21
376.410858
 31
0.0
  0
LINE
  5
15f
100
AcDbEntity
  8
Layer_1
 62
7
100
AcDbLine
 10
225.875545
 20
376.410858
 30
0.0
 11
225.875545
 21
374.310859
 31
0.0
  0
LINE
  5
160
100
AcDbEntity
  8
Layer_1
 62
7
100
AcDbLine
 10
225.875545
 20
374.310859
 30
0.0
 11
220.875555
 21
374.310859
 31
0.0
  0
LINE
  5
161
100
AcDbEntity
  8
Layer_1
 62
7
100
AcDbLine
 10
220.875555
 20
374.310859
 30
0.0
 11
220.875555
 21
382.910859
 31
0.0
  0
LINE
  5
162
100
AcDbEntity
  8
Layer_1
 62
7
100
AcDbLine
 10
220.875555
 20
382.910859
 30
0.0
 11
225.875545
 21
382.910859
 31
0.0
  0
LINE
  5
163
100
AcDbEntity
  8
Layer_1
 62
7
100
AcDbLine
 10
225.875545
 20
382.910859
 30
0.0
 11
225.875545
 21
380.810857
 31
0.0
  0
LINE
  5
164
100
AcDbEntity
  8
Layer_1
 62
7
100
AcDbLine
 10
225.875545
 20
380.810857
 30
0.0
 11
230.875535
 21
380.810857
 31
0.0
  0
LINE
  5
165
100
AcDbEntity
  8
Layer_1
 62
7
100
AcDbLine
 10
230.875535
 20
380.810857
 30
0.0
 11
230.875535
 21
386.610857
 31
0.0
  0
LINE
  5
166
100
AcDbEntity
  8
Layer_1
 62
7
100
AcDbLine
 10
230.875535
 20
386.610857
 30
0.0
 11
233.875529
 21
386.610857
 31
0.0
  0
LINE
  5
167
100
AcDbEntity
  8
Layer_1
 62
7
100
AcDbLine
 10
233.875529
 20
386.610857
 30
0.0
 11
233.875529
 21
394.610858
 31
0.0
  0
LINE
  5
168
100
AcDbEntity
  8
Layer_1
 62
7
100
AcDbLine
 10
233.875529
 20
394.610858
 30
0.0
 11
230.870286
 21
394.610858
 31
0.0
  0
LINE
  5
169
100
AcDbEntity
  8
Layer_1
 62
7
100
AcDbLine
 10
230.870286
 20
394.610858
 30
0.0
 11
230.864924
 21
401.114926
 31
0.0
  0
LINE
  5
16a
100
AcDbEntity
  8
Layer_1
 62
7
100
AcDbLine
 10
230.864924
 20
401.114926
 30
0.0
 11
146.871501
 21
401.102932
 31
0.0
  0
LINE
  5
16b
100
AcDbEntity
  8
Layer_1
 62
7
100
AcDbLine
 10
146.871501
 20
401.102932
 30
0.0
 11
146.871368
 21
404.102937
 31
0.0
  0
LINE
  5
16c
100
AcDbEntity
  8
Layer_1
 62
7
100
AcDbLine
 10
146.871368
 20
404.102937
 30
0.0
 11
138.871367
 21
404.102937
 31
0.0
  0
LINE
  5
16d
100
AcDbEntity
  8
Layer_1
 62
7
100
AcDbLine
 10
138.871367
 20
404.102937
 30
0.0
 11
138.871367
 21
401.102937
 31
0.0
  0
LINE
  5
16e
100
AcDbEntity
  8
Layer_1
 62
7
100
AcDbLine
 10
138.871367
 20
401.102937
 30
0.0
 11
133.071368
 21
401.102937
 31
0.0
  0
LINE
  5
16f
100
AcDbEntity
  8
Layer_1
 62
7
100
AcDbLine
 10
133.071368
 20
401.102937
 30
0.0
 11
133.071368
 21
396.102936
 31
0.0
  0
LINE
  5
170
100
AcDbEntity
  8
Layer_1
 62
7
100
AcDbLine
 10
133.071368
 20
396.102936
 30
0.0
 11
135.171366
 21
396.102936
 31
0.0
  0
LINE
  5
171
100
AcDbEntity
  8
Layer_1
 62
7
100
AcDbLine
 10
135.171366
 20
396.102936
 30
0.0
 11
135.171369
 21
391.102937
 31
0.0
  0
LINE
  5
172
100
AcDbEntity
  8
Layer_1
 62
7
100
AcDbLine
 10
135.171369
 20
391.102937
 30
0.0
 11
126.571369
 21
391.102937
 31
0.0
  0
LINE
  5
173
100
AcDbEntity
  8
Layer_1
 62
7
100
AcDbLine
 10
126.571369
 20
391.102937
 30
0.0
 11
126.571369
 21
396.102939
 31
0.0
  0
LINE
  5
174
100
AcDbEntity
  8
Layer_1
 62
7
100
AcDbLine
 10
126.571369
 20
396.102939
 30
0.0
 11
128.671368
 21
396.102936
 31
0.0
  0
LINE
  5
175
100
AcDbEntity
  8
Layer_1
 62
7
100
AcDbLine
 10
128.671368
 20
396.102936
 30
0.0
 11
128.671368
 21
401.102937
 31
0.0
  0
LINE
  5
176
100
AcDbEntity
  8
Layer_1
 62
7
100
AcDbLine
 10
128.671368
 20
401.102937
 30
0.0
 11
122.871368
 21
401.102937
 31
0.0
  0
LINE
  5
177
100
AcDbEntity
  8
Layer_1
 62
7
100
AcDbLine
 10
122.871368
 20
401.102937
 30
0.0
 11
122.871368
 21
404.102937
 31
0.0
  0
LINE
  5
178
100
AcDbEntity
  8
Layer_1
 62
7
100
AcDbLine
 10
122.871368
 20
404.102937
 30
0.0
 11
114.871365
 21
404.102937
 31
0.0
  0
LINE
  5
179
100
AcDbEntity
  8
Layer_1
 62
7
100
AcDbLine
 10
114.871365
 20
404.102937
 30
0.0
 11
114.871635
 21
401.110710
 31
0.0
  0
LINE
  5
17a
100
AcDbEntity
  8
Layer_1
 62
7
100
AcDbLine
 10
114.871635
 20
401.110710
 30
0.0
 11
30.864914
 21
401.114915
 31
0.0
  0
LINE
  5
17b
100
AcDbEntity
  8
Layer_1
 62
7
100
AcDbLine
 10
30.864914
 20
401.114915
 30
0.0
 11
30.866043
 21
394.610847
 31
0.0
  0
LINE
  5
17c
100
AcDbEntity
  8
Layer_1
 62
7
100
AcDbLine
 10
30.866043
 20
394.610847
 30
0.0
 11
27.867206
 21
394.610847
 31
0.0
  0
LINE
  5
17d
100
AcDbEntity
  8
Layer_1
 62
7
100
AcDbLine
 10
27.867206
 20
394.610847
 30
0.0
 11
27.867206
 21
386.610846
 31
0.0
  0
LINE
  5
17e
100
AcDbEntity
  8
Layer_1
 62
7
100
AcDbLine
 10
27.867206
 20
386.610846
 30
0.0
 11
30.867200
 21
386.610846
 31
0.0
  0
LINE
  5
17f
100
AcDbEntity
  8
Layer_1
 62
7
100
AcDbLine
 10
30.867200
 20
386.610846
 30
0.0
 11
30.867200
 21
380.810846
 31
0.0
  0
LINE
  5
180
100
AcDbEntity
  8
Layer_1
 62
7
100
AcDbLine
 10
30.867200
 20
380.810846
 30
0.0
 11
35.867190
 21
380.810846
 31
0.0
  0
LINE
  5
181
100
AcDbEntity
  8
Layer_1
 62
7
100
AcDbLine
 10
35.867190
 20
380.810846
 30
0.0
 11
35.867190
 21
382.910848
 31
0.0
  0
LINE
  5
182
100
AcDbEntity
  8
Layer_1
 62
7
100
AcDbLine
 10
35.867190
 20
382.910848
 30
0.0
 11
40.867180
 21
382.910848
 31
0.0
  0
LINE
  5
183
100
AcDbEntity
  8
Layer_1
 62
7
100
AcDbLine
 10
40.867180
 20
382.910848
 30
0.0
 11
40.867180
 21
374.310848
 31
0.0
  0
LINE
  5
184
100
AcDbEntity
  8
Layer_1
 62
7
100
AcDbLine
 10
40.867180
 20
374.310848
 30
0.0
 11
35.867190
 21
374.310848
 31
0.0
  0
LINE
  5
185
100
AcDbEntity
  8
Layer_1
 62
7
100
AcDbLine
 10
35.867190
 20
374.310848
 30
0.0
 11
35.867190
 21
376.410847
 31
0.0
  0
LINE
  5
186
100
AcDbEntity
  8
Layer_1
 62
7
100
AcDbLine
 10
35.867190
 20
376.410847
 30
0.0
 11
30.867200
 21
376.410847
 31
0.0
  0
LINE
  5
187
100
AcDbEntity
  8
Layer_1
 62
7
100
AcDbLine
 10
30.867200
 20
376.410847
 30
0.0
 11
30.867200
 21
370.610847
 31
0.0
  0
LINE
  5
188
100
AcDbEntity
  8
Layer_1
 62
7
100
AcDbLine
 10
30.867200
 20
370.610847
 30
0.0
 11
27.867206
 21
370.610847
 31
0.0
  0
LINE
  5
189
100
AcDbEntity
  8
Layer_1
 62
7
100
AcDbLine
 10
27.867206
 20
370.610847
 30
0.0
 11
27.867206
 21
362.610846
 31
0.0
  0
LINE
  5
18a
100
AcDbEntity
  8
Layer_1
 62
7
100
AcDbLine
 10
27.867206
 20
362.610846
 30
0.0
 11
30.866100
 21
362.610852
 31
0.0
  0
LINE
  5
18b
100
AcDbEntity
  8
Layer_1
 62
7
100
AcDbLine
 10
30.866100
 20
362.610852
 30
0.0
 11
30.867000
 21
354.709668
 31
0.0
  0
LINE
  5
18c
100
AcDbEntity
  8
Layer_1
 62
7
100
AcDbLine
 10
16.439227
 20
546.438223
 30
0.0
 11
26.098486
 21
549.026413
 31
0.0
  0
SPLINE
  5
18d
100
AcDbEntity
  8
Layer_1
 62
7
100
AcDbSpline
 70
8
 71
3
 72
8
 73
4
 74
0
 40
0
 40
0
 40
0
 40
0
 40
1
 40
1
 40
1
 40
1
 10
26.098486
 20
549.026413
 30
0.0
 10
47.840001
 20
532.064856
 30
0.0
 10
190.408852
 20
520.910693
 30
0.0
 10
190.306250
 20
593.025752
 30
0.0
  0
LINE
  5
18e
100
AcDbEntity
  8
Layer_1
 62
7
100
AcDbLine
 10
190.306250
 20
593.025752
 30
0.0
 11
209.624771
 21
598.202134
 31
0.0
  0
SPLINE
  5
18f
100
AcDbEntity
  8
Layer_1
 62
7
100
AcDbSpline
 70
8
 71
3
 72
8
 73
4
 74
0
 40
0
 40
0
 40
0
 40
0
 40
1
 40
1
 40
1
 40
1
 10
209.624771
 20
598.202134
 30
0.0
 10
208.182169
 20
521.636551
 30
0.0
 10
259.406883
 20
517.827017
 30
0.0
 10
259.406883
 20
517.827017
 30
0.0
  0
LINE
  5
190
100
AcDbEntity
  8
Layer_1
 62
7
100
AcDbLine
 10
259.406883
 20
517.827017
 30
0.0
 11
259.412894
 21
507.894105
 31
0.0
  0
LINE
  5
191
100
AcDbEntity
  8
Layer_1
 62
7
100
AcDbLine
 10
259.412894
 20
507.894105
 30
0.0
 11
9.412809
 21
507.894105
 31
0.0
  0
LINE
  5
192
100
AcDbEntity
  8
Layer_1
 62
7
100
AcDbLine
 10
9.412809
 20
507.894105
 30
0.0
 11
9.412811
 21
497.894105
 31
0.0
  0
SPLINE
  5
193
100
AcDbEntity
  8
Layer_1
 62
7
100
AcDbSpline
 70
8
 71
3
 72
8
 73
4
 74
0
 40
0
 40
0
 40
0
 40
0
 40
1
 40
1
 40
1
 40
1
 10
9.412811
 20
497.894105
 30
0.0
 10
6.131890
 20
499.082387
 30
0.0
 10
1.255945
 20
505.686427
 30
0.0
 10
2.540527
 20
515.974954
 30
0.0
  0
SPLINE
  5
194
100
AcDbEntity
  8
Layer_1
 62
7
100
AcDbSpline
 70
8
 71
3
 72
8
 73
4
 74
0
 40
0
 40
0
 40
0
 40
0
 40
1
 40
1
 40
1
 40
1
 10
2.540527
 20
515.974954
 30
0.0
 10
31.561658
 20
528.084791
 30
0.0
 10
16.439233
 20
546.438222
 30
0.0
 10
16.439233
 20
546.438222
 30
0.0
  0
LINE
  5
195
100
AcDbEntity
  8
Layer_1
 62
7
100
AcDbLine
 10
16.439233
 20
546.438222
 30
0.0
 11
16.439227
 21
546.438223
 31
0.0
  0
SPLINE
  5
196
100
AcDbEntity
  8
Layer_1
 62
7
100
AcDbSpline
 70
8
 71
3
 72
8
 73
4
 74
0
 40
0
 40
0
 40
0
 40
0
 40
1
 40
1
 40
1
 40
1
 10
170.576631
 20
520.093931
 30
0.0
 10
169.445202
 20
520.093931
 30
0.0
 10
168.527989
 20
519.176719
 30
0.0
 10
168.527989
 20
518.045284
 30
0.0
  0
SPLINE
  5
197
100
AcDbEntity
  8
Layer_1
 62
7
100
AcDbSpline
 70
8
 71
3
 72
8
 73
4
 74
0
 40
0
 40
0
 40
0
 40
0
 40
1
 40
1
 40
1
 40
1
 10
168.527989
 20
518.045284
 30
0.0
 10
168.527989
 20
516.913849
 30
0.0
 10
169.445202
 20
515.996637
 30
0.0
 10
170.576631
 20
515.996637
 30
0.0
  0
SPLINE
  5
198
100
AcDbEntity
  8
Layer_1
 62
7
100
AcDbSpline
 70
8
 71
3
 72
8
 73
4
 74
0
 40
0
 40
0
 40
0
 40
0
 40
1
 40
1
 40
1
 40
1
 10
170.576631
 20
515.996637
 30
0.0
 10
171.708070
 20
515.996637
 30
0.0
 10
172.625282
 20
516.913849
 30
0.0
 10
172.625282
 20
518.045284
 30
0.0
  0
SPLINE
  5
199
100
AcDbEntity
  8
Layer_1
 62
7
100
AcDbSpline
 70
8
 71
3
 72
8
 73
4
 74
0
 40
0
 40
0
 40
0
 40
0
 40
1
 40
1
 40
1
 40
1
 10
172.625282
 20
518.045284
 30
0.0
 10
172.625282
 20
519.176719
 30
0.0
 10
171.708070
 20
520.093931
 30
0.0
 10
170.576631
 20
520.093931
 30
0.0
  0
LINE
  5
19a
100
AcDbEntity
  8
Layer_1
 62
7
100
AcDbLine
 10
170.576631
 20
520.093931
 30
0.0
 11
170.576631
 21
520.093931
 31
0.0
  0
LINE
  5
19b
100
AcDbEntity
  8
Layer_1
 62
7
100
AcDbLine
 10
186.624298
 20
516.499246
 30
0.0
 11
186.624298
 21
519.591330
 31
0.0
  0
LINE
  5
19c
100
AcDbEntity
  8
Layer_1
 62
7
100
AcDbLine
 10
186.624298
 20
519.591330
 30
0.0
 11
178.532214
 21
519.591330
 31
0.0
  0
LINE
  5
19d
100
AcDbEntity
  8
Layer_1
 62
7
100
AcDbLine
 10
178.532214
 20
519.591330
 30
0.0
 11
178.532214
 21
516.499246
 31
0.0
  0
LINE
  5
19e
100
AcDbEntity
  8
Layer_1
 62
7
100
AcDbLine
 10
178.532214
 20
516.499246
 30
0.0
 11
186.624298
 21
516.499246
 31
0.0
  0
LINE
  5
19f
100
AcDbEntity
  8
Layer_1
 62
7
100
AcDbLine
 10
162.627555
 20
516.495984
 30
0.0
 11
162.627555
 21
519.594586
 31
0.0
  0
LINE
  5
1a0
100
AcDbEntity
  8
Layer_1
 62
7
100
AcDbLine
 10
162.627555
 20
519.594586
 30
0.0
 11
154.528952
 21
519.594586
 31
0.0
  0
LINE
  5
1a1
100
AcDbEntity
  8
Layer_1
 62
7
100
AcDbLine
 10
154.528952
 20
519.594586
 30
0.0
 11
154.528952
 21
516.495984
 31
0.0
  0
LINE
  5
1a2
100
AcDbEntity
  8
Layer_1
 62
7
100
AcDbLine
 10
154.528952
 20
516.495984
 30
0.0
 11
162.627555
 21
516.495984
 31
0.0
  0
SPLINE
  5
1a3
100
AcDbEntity
  8
Layer_1
 62
7
100
AcDbSpline
 70
8
 71
3
 72
8
 73
4
 74
0
 40
0
 40
0
 40
0
 40
0
 40
1
 40
1
 40
1
 40
1
 10
194.629314
 20
542.042963
 30
0.0
 10
194.629314
 20
540.911534
 30
0.0
 10
195.546525
 20
539.994321
 30
0.0
 10
196.677960
 20
539.994321
 30
0.0
  0
SPLINE
  5
1a4
100
AcDbEntity
  8
Layer_1
 62
7
100
AcDbSpline
 70
8
 71
3
 72
8
 73
4
 74
0
 40
0
 40
0
 40
0
 40
0
 40
1
 40
1
 40
1
 40
1
 10
196.677960
 20
539.994321
 30
0.0
 10
197.809395
 20
539.994321
 30
0.0
 10
198.726607
 20
540.911534
 30
0.0
 10
198.726607
 20
542.042963
 30
0.0
  0
SPLINE
  5
1a5
100
AcDbEntity
  8
Layer_1
 62
7
100
AcDbSpline
 70
8
 71
3
 72
8
 73
4
 74
0
 40
0
 40
0
 40
0
 40
0
 40
1
 40
1
 40
1
 40
1
 10
198.726607
 20
542.042963
 30
0.0
 10
198.726607
 20
543.174402
 30
0.0
 10
197.809395
 20
544.091614
 30
0.0
 10
196.677960
 20
544.091614
 30
0.0
  0
SPLINE
  5
1a6
100
AcDbEntity
  8
Layer_1
 62
7
100
AcDbSpline
 70
8
 71
3
 72
8
 73
4
 74
0
 40
0
 40
0
 40
0
 40
0
 40
1
 40
1
 40
1
 40
1
 10
196.677960
 20
544.091614
 30
0.0
 10
195.546525
 20
544.091614
 30
0.0
 10
194.629314
 20
543.174402
 30
0.0
 10
194.629314
 20
542.042963
 30
0.0
  0
LINE
  5
1a7
100
AcDbEntity
  8
Layer_1
 62
7
100
AcDbLine
 10
194.629314
 20
542.042963
 30
0.0
 11
194.629314
 21
542.042963
 31
0.0
  0
LINE
  5
1a8
100
AcDbEntity
  8
Layer_1
 62
7
100
AcDbLine
 10
198.223998
 20
558.090630
 30
0.0
 11
195.131914
 21
558.090630
 31
0.0
  0
LINE
  5
1a9
100
AcDbEntity
  8
Layer_1
 62
7
100
AcDbLine
 10
195.131914
 20
558.090630
 30
0.0
 11
195.131914
 21
549.998546
 31
0.0
  0
LINE
  5
1aa
100
AcDbEntity
  8
Layer_1
 62
7
100
AcDbLine
 10
195.131914
 20
549.998546
 30
0.0
 11
198.223998
 21
549.998546
 31
0.0
  0
LINE
  5
1ab
100
AcDbEntity
  8
Layer_1
 62
7
100
AcDbLine
 10
198.223998
 20
549.998546
 30
0.0
 11
198.223998
 21
558.090630
 31
0.0
  0
LINE
  5
1ac
100
AcDbEntity
  8
Layer_1
 62
7
100
AcDbLine
 10
198.227261
 20
534.093887
 30
0.0
 11
195.128658
 21
534.093887
 31
0.0
  0
LINE
  5
1ad
100
AcDbEntity
  8
Layer_1
 62
7
100
AcDbLine
 10
195.128658
 20
534.093887
 30
0.0
 11
195.128658
 21
525.995284
 31
0.0
  0
LINE
  5
1ae
100
AcDbEntity
  8
Layer_1
 62
7
100
AcDbLine
 10
195.128658
 20
525.995284
 30
0.0
 11
198.227261
 21
525.995284
 31
0.0
  0
LINE
  5
1af
100
AcDbEntity
  8
Layer_1
 62
7
100
AcDbLine
 10
198.227261
 20
525.995284
 30
0.0
 11
198.227261
 21
534.093887
 31
0.0
  0
ENDSEC
  0
SECTION
  2
OBJECTS
  0
DICTIONARY
  5
C
330
0
100
AcDbDictionary
  3
ACAD_GROUP
350
D
  3
ACAD_MLINESTYLE
350
17
  0
DICTIONARY
  5
D
330
C
100
AcDbDictionary
  0
DICTIONARY
  5
1A
330
C
100
AcDbDictionary
  0
DICTIONARY
  5
17
330
C
100
AcDbDictionary
  3
STANDARD
350
18
  0
DICTIONARY
  5
19
330
C
100
AcDbDictionary
  0
ENDSEC
  0
EOF
